<?xml version="1.0" standalone="no"?>
<svg viewBox="0 0 200 200" xmlns="http://www.w3.org/2000/svg">
  <path fill="#FF0066" d="M42.5,-68.5C50.5,-61,49.3,-41.5,52.7,-26.3C56.1,-11.2,64.2,-0.4,65.7,11.5C67.1,23.3,62,36.3,52.5,43.4C43.1,50.5,29.3,51.8,16.8,54.2C4.2,56.5,-7.2,59.9,-21.1,60.9C-35,61.8,-51.5,60.4,-63.9,52C-76.3,43.7,-84.7,28.6,-84.6,13.6C-84.5,-1.3,-76,-16,-66.4,-27.6C-56.9,-39.2,-46.5,-47.6,-35.3,-53.6C-24,-59.6,-12,-63.1,2.6,-67.2C17.3,-71.3,34.5,-75.9,42.5,-68.5Z" transform="translate(100 100)" />
</svg>
